<svg width="94" height="28" viewBox="0 0 94 28" fill="none" xmlns="http://www.w3.org/2000/svg">
<path d="M14 28C6.26889 28 0 21.7311 0 14H14V28Z" fill="#703BF7"/>
<path d="M0 0C7.73111 0 14 6.26889 14 14H0V0Z" fill="#703BF7"/>
<path d="M14 28C21.7311 28 28 21.7311 28 14L13 12.5L12.5 27.5L14 28Z" fill="#703BF7"/>
<path d="M28 14C28 6.26889 21.7311 0 14 0V14H28Z" fill="#703BF7"/>
<path d="M91.4785 20.3351V15.6645C91.4785 15.1249 91.3043 14.6809 90.9558 14.3324C90.6186 13.984 90.1802 13.8097 89.6407 13.8097C89.2809 13.8097 88.9606 13.8884 88.6796 14.0458C88.3985 14.2032 88.1793 14.4224 88.022 14.7034C87.8646 14.9844 87.7859 15.3048 87.7859 15.6645L87.0609 15.2598C87.0609 14.6416 87.1958 14.0964 87.4655 13.6242C87.7353 13.1409 88.1063 12.7643 88.5784 12.4945C89.0617 12.2135 89.6013 12.073 90.1971 12.073C90.8041 12.073 91.3437 12.2304 91.8158 12.5451C92.2879 12.8486 92.6588 13.2477 92.9286 13.7423C93.1984 14.2256 93.3333 14.7315 93.3333 15.2598V20.3351H91.4785ZM85.9312 20.3351V12.2416H87.7859V20.3351H85.9312Z" fill="white"/>
<path d="M81.9962 20.3352V12.2417H83.851V20.3352H81.9962ZM82.9236 10.7579C82.6089 10.7579 82.3447 10.6511 82.1311 10.4376C81.9288 10.224 81.8276 9.95983 81.8276 9.64508C81.8276 9.33033 81.9288 9.06617 82.1311 8.85259C82.3447 8.63902 82.6089 8.53223 82.9236 8.53223C83.2496 8.53223 83.5138 8.63902 83.7161 8.85259C83.9184 9.06617 84.0196 9.33033 84.0196 9.64508C84.0196 9.95983 83.9184 10.224 83.7161 10.4376C83.5138 10.6511 83.2496 10.7579 82.9236 10.7579Z" fill="white"/>
<path d="M76.7325 20.5037C75.9232 20.5037 75.1925 20.3238 74.5405 19.9641C73.8998 19.5932 73.3883 19.0873 73.0061 18.4466C72.6352 17.8059 72.4497 17.0865 72.4497 16.2883C72.4497 15.4902 72.6352 14.7764 73.0061 14.1469C73.3771 13.5062 73.8773 13.0004 74.5068 12.6294C75.1475 12.2585 75.8557 12.073 76.6313 12.073C77.3845 12.073 78.0477 12.2472 78.621 12.5957C79.2055 12.9442 79.6608 13.4219 79.9867 14.0289C80.324 14.6359 80.4926 15.3272 80.4926 16.1029C80.4926 16.2378 80.4814 16.3783 80.4589 16.5244C80.4476 16.6593 80.4251 16.811 80.3914 16.9797H73.748V15.4621H79.4303L78.739 16.0691C78.7165 15.5745 78.621 15.1586 78.4524 14.8214C78.2837 14.4842 78.0421 14.2256 77.7273 14.0458C77.4238 13.8659 77.0472 13.776 76.5976 13.776C76.1255 13.776 75.7152 13.8772 75.3667 14.0795C75.0183 14.2818 74.7485 14.5685 74.5574 14.9394C74.3663 15.2991 74.2707 15.7319 74.2707 16.2378C74.2707 16.7436 74.3719 17.1876 74.5742 17.5698C74.7766 17.952 75.0632 18.2499 75.4342 18.4635C75.8051 18.6658 76.2323 18.767 76.7156 18.767C77.1316 18.767 77.5137 18.6939 77.8622 18.5478C78.2219 18.4016 78.5254 18.1881 78.7727 17.907L79.953 19.1042C79.5596 19.5651 79.0819 19.9135 78.5198 20.1496C77.9578 20.3857 77.362 20.5037 76.7325 20.5037Z" fill="white"/>
<path d="M68.0611 20.3351V8.86938H69.9159V20.3351H68.0611ZM66.1221 13.9278V12.2417H71.8549V13.9278H66.1221Z" fill="white"/>
<path d="M60.4389 20.5037C59.7083 20.5037 59.0451 20.3182 58.4493 19.9473C57.8648 19.5763 57.3983 19.0761 57.0498 18.4466C56.7126 17.8059 56.5439 17.0921 56.5439 16.3052C56.5439 15.5071 56.7126 14.7933 57.0498 14.1638C57.3983 13.5231 57.8648 13.0172 58.4493 12.6463C59.0451 12.2641 59.7083 12.073 60.4389 12.073C61.0572 12.073 61.6024 12.2079 62.0745 12.4777C62.5578 12.7362 62.94 13.0959 63.2211 13.5568C63.5021 14.0177 63.6426 14.5404 63.6426 15.1249V17.4518C63.6426 18.0363 63.5021 18.559 63.2211 19.0199C62.9513 19.4808 62.5747 19.8461 62.0913 20.1159C61.608 20.3744 61.0572 20.5037 60.4389 20.5037ZM60.7424 18.7501C61.4281 18.7501 61.9789 18.5197 62.3948 18.0588C62.822 17.5979 63.0356 17.0078 63.0356 16.2883C63.0356 15.805 62.94 15.3778 62.7489 15.0069C62.5578 14.6359 62.2881 14.3493 61.9396 14.1469C61.6024 13.9334 61.2033 13.8266 60.7424 13.8266C60.2928 13.8266 59.8937 13.9334 59.5453 14.1469C59.208 14.3493 58.9383 14.6359 58.7359 15.0069C58.5448 15.3778 58.4493 15.805 58.4493 16.2883C58.4493 16.7717 58.5448 17.1989 58.7359 17.5698C58.9383 17.9408 59.208 18.233 59.5453 18.4466C59.8937 18.6489 60.2928 18.7501 60.7424 18.7501ZM62.9176 20.3351V18.16L63.2379 16.1872L62.9176 14.2313V12.2416H64.7723V20.3351H62.9176Z" fill="white"/>
<path d="M52.1383 20.3351V8.86938H53.993V20.3351H52.1383ZM50.1992 13.9278V12.2417H55.9321V13.9278H50.1992Z" fill="white"/>
<path d="M46.3095 20.5037C45.8599 20.5037 45.4271 20.4475 45.0112 20.3351C44.5953 20.2114 44.2131 20.0428 43.8646 19.8292C43.5161 19.6044 43.2126 19.3346 42.9541 19.0199L44.1344 17.8396C44.4154 18.1656 44.7358 18.4129 45.0955 18.5815C45.4664 18.7389 45.8824 18.8176 46.3432 18.8176C46.7592 18.8176 47.0739 18.7557 47.2875 18.6321C47.5011 18.5084 47.6078 18.3286 47.6078 18.0925C47.6078 17.8452 47.5067 17.6541 47.3043 17.5192C47.102 17.3843 46.8378 17.2719 46.5119 17.182C46.1971 17.0808 45.8599 16.9797 45.5002 16.8785C45.1517 16.7773 44.8145 16.6424 44.4885 16.4738C44.1737 16.294 43.9152 16.0523 43.7129 15.7488C43.5105 15.4453 43.4094 15.0518 43.4094 14.5685C43.4094 14.0514 43.5274 13.6074 43.7634 13.2364C44.0107 12.8655 44.3536 12.5788 44.792 12.3765C45.2416 12.1742 45.7756 12.073 46.3938 12.073C47.0458 12.073 47.6191 12.191 48.1137 12.4271C48.6195 12.6519 49.0411 12.9948 49.3783 13.4556L48.198 14.6359C47.9619 14.3437 47.6922 14.1245 47.3886 13.9783C47.0851 13.8322 46.7367 13.7591 46.3432 13.7591C45.9723 13.7591 45.6856 13.8153 45.4833 13.9278C45.281 14.0402 45.1798 14.2032 45.1798 14.4167C45.1798 14.6416 45.281 14.8158 45.4833 14.9394C45.6856 15.0631 45.9442 15.1699 46.2589 15.2598C46.5849 15.3497 46.9221 15.4509 47.2706 15.5633C47.6303 15.6645 47.9676 15.8106 48.2823 16.0017C48.6083 16.1816 48.8725 16.4289 49.0748 16.7436C49.2771 17.0471 49.3783 17.4462 49.3783 17.9408C49.3783 18.7276 49.1029 19.3515 48.5521 19.8124C48.0013 20.2733 47.2538 20.5037 46.3095 20.5037Z" fill="white"/>
<path d="M33.9697 20.3352V8.53223H35.9088V20.3352H33.9697ZM35.3018 20.3352V18.5648H41.9114V20.3352H35.3018ZM35.3018 15.1588V13.4558H41.3382V15.1588H35.3018ZM35.3018 10.3027V8.53223H41.8271V10.3027H35.3018Z" fill="white"/>
</svg>
