<svg width="140" height="48" viewBox="0 0 160 48" fill="none" xmlns="http://www.w3.org/2000/svg">
<path d="M24.3333 48C11.0799 48 0.333252 37.2533 0.333252 24H24.3333V48Z" fill="#703BF7"/>
<path d="M0.333252 0C13.5866 0 24.3333 10.7467 24.3333 24H0.333252V0Z" fill="#703BF7"/>
<path d="M24 48C37.2533 48 48 37.2534 48 24L23 20V47L24 48Z" fill="#703BF7"/>
<path d="M48 24C48 10.7467 37.2533 0 24 0V24H48Z" fill="#703BF7"/>
<path d="M157.154 34.8603V26.8536C157.154 25.9286 156.855 25.1675 156.258 24.5701C155.679 23.9727 154.928 23.674 154.003 23.674C153.386 23.674 152.837 23.8089 152.355 24.0787C151.874 24.3485 151.498 24.7242 151.228 25.206C150.958 25.6877 150.823 26.237 150.823 26.8536L149.58 26.1599C149.58 25.1 149.812 24.1654 150.274 23.3561C150.737 22.5274 151.373 21.8819 152.182 21.4194C153.011 20.9377 153.936 20.6968 154.957 20.6968C155.997 20.6968 156.922 20.9666 157.732 21.5061C158.541 22.0264 159.177 22.7105 159.639 23.5584C160.102 24.387 160.333 25.2542 160.333 26.1599V34.8603H157.154ZM147.644 34.8603V20.9858H150.823V34.8603H147.644Z" fill="white"/>
<path d="M140.898 34.8604V20.9859H144.078V34.8604H140.898ZM142.488 18.4422C141.948 18.4422 141.496 18.2591 141.129 17.893C140.783 17.5269 140.609 17.074 140.609 16.5345C140.609 15.9949 140.783 15.542 141.129 15.1759C141.496 14.8098 141.948 14.6267 142.488 14.6267C143.047 14.6267 143.5 14.8098 143.847 15.1759C144.193 15.542 144.367 15.9949 144.367 16.5345C144.367 17.074 144.193 17.5269 143.847 17.893C143.5 18.2591 143.047 18.4422 142.488 18.4422Z" fill="white"/>
<path d="M131.874 35.1494C130.487 35.1494 129.234 34.8411 128.117 34.2244C127.018 33.5885 126.142 32.7214 125.486 31.623C124.85 30.5246 124.532 29.2913 124.532 27.9231C124.532 26.5549 124.85 25.3313 125.486 24.2521C126.122 23.1537 126.98 22.2866 128.059 21.6506C129.157 21.0147 130.371 20.6968 131.701 20.6968C132.992 20.6968 134.129 20.9955 135.112 21.5928C136.114 22.1902 136.894 23.0092 137.453 24.0498C138.031 25.0904 138.32 26.2755 138.32 27.6051C138.32 27.8364 138.301 28.0773 138.262 28.3278C138.243 28.559 138.205 28.8192 138.147 29.1082H126.758V26.5067H136.499L135.314 27.5473C135.276 26.6994 135.112 25.9864 134.823 25.4083C134.534 24.8302 134.119 24.387 133.58 24.0787C133.06 23.7704 132.414 23.6162 131.643 23.6162C130.834 23.6162 130.13 23.7896 129.533 24.1365C128.936 24.4834 128.473 24.9748 128.146 25.6107C127.818 26.2273 127.654 26.9692 127.654 27.8364C127.654 28.7035 127.828 29.4647 128.175 30.1199C128.521 30.7751 129.013 31.2857 129.649 31.6519C130.285 31.9987 131.017 32.1722 131.845 32.1722C132.558 32.1722 133.214 32.0469 133.811 31.7964C134.428 31.5459 134.948 31.1797 135.372 30.698L137.395 32.7503C136.721 33.5403 135.902 34.1377 134.938 34.5424C133.975 34.9471 132.954 35.1494 131.874 35.1494Z" fill="white"/>
<path d="M117.01 34.8604V15.2048H120.189V34.8604H117.01ZM113.686 23.8764V20.9859H123.514V23.8764H113.686Z" fill="white"/>
<path d="M103.942 35.1494C102.69 35.1494 101.553 34.8314 100.532 34.1955C99.5296 33.5596 98.7299 32.7021 98.1325 31.623C97.5544 30.5246 97.2654 29.3009 97.2654 27.952C97.2654 26.5838 97.5544 25.3602 98.1325 24.281C98.7299 23.1826 99.5296 22.3155 100.532 21.6796C101.553 21.0244 102.69 20.6968 103.942 20.6968C105.002 20.6968 105.937 20.928 106.746 21.3905C107.575 21.8337 108.23 22.4504 108.712 23.2404C109.194 24.0305 109.434 24.9266 109.434 25.9286V29.9176C109.434 30.9196 109.194 31.8157 108.712 32.6057C108.249 33.3958 107.604 34.0221 106.775 34.4846C105.947 34.9278 105.002 35.1494 103.942 35.1494ZM104.463 32.1433C105.638 32.1433 106.583 31.7482 107.296 30.9581C108.028 30.1681 108.394 29.1564 108.394 27.9231C108.394 27.0945 108.23 26.3622 107.903 25.7263C107.575 25.0904 107.112 24.599 106.515 24.2521C105.937 23.886 105.253 23.7029 104.463 23.7029C103.692 23.7029 103.008 23.886 102.411 24.2521C101.832 24.599 101.37 25.0904 101.023 25.7263C100.695 26.3622 100.532 27.0945 100.532 27.9231C100.532 28.7517 100.695 29.484 101.023 30.1199C101.37 30.7558 101.832 31.2568 102.411 31.623C103.008 31.9698 103.692 32.1433 104.463 32.1433ZM108.192 34.8603V31.1316L108.741 27.7497L108.192 24.3966V20.9858H111.371V34.8603H108.192Z" fill="white"/>
<path d="M89.713 34.8604V15.2048H92.8926V34.8604H89.713ZM86.3889 23.8764V20.9859H96.2167V23.8764H86.3889Z" fill="white"/>
<path d="M79.7211 35.1494C78.9503 35.1494 78.2084 35.0531 77.4954 34.8603C76.7824 34.6484 76.1273 34.3593 75.5299 33.9932C74.9325 33.6078 74.4122 33.1453 73.969 32.6057L75.9924 30.5824C76.4741 31.1412 77.0233 31.5652 77.64 31.8542C78.2759 32.124 78.9889 32.2589 79.7789 32.2589C80.4919 32.2589 81.0315 32.1529 81.3976 31.9409C81.7638 31.7289 81.9468 31.4206 81.9468 31.016C81.9468 30.592 81.7734 30.2644 81.4265 30.0332C81.0797 29.8019 80.6268 29.6092 80.068 29.4551C79.5284 29.2816 78.9503 29.1082 78.3337 28.9348C77.7363 28.7613 77.1582 28.5301 76.5994 28.241C76.0598 27.9327 75.6166 27.5184 75.2697 26.9981C74.9229 26.4778 74.7494 25.8034 74.7494 24.9748C74.7494 24.0883 74.9518 23.3272 75.3564 22.6912C75.7804 22.0553 76.3681 21.5639 77.1197 21.2171C77.8905 20.8702 78.8058 20.6968 79.8657 20.6968C80.9833 20.6968 81.9661 20.8991 82.814 21.3038C83.6812 21.6892 84.4038 22.2769 84.9819 23.067L82.9585 25.0904C82.5539 24.5893 82.0914 24.2136 81.5711 23.9631C81.0508 23.7126 80.4534 23.5873 79.7789 23.5873C79.143 23.5873 78.6516 23.6837 78.3048 23.8764C77.9579 24.0691 77.7845 24.3485 77.7845 24.7146C77.7845 25.1 77.9579 25.3987 78.3048 25.6107C78.6516 25.8226 79.0949 26.0057 79.6344 26.1599C80.1933 26.314 80.7714 26.4875 81.3687 26.6802C81.9854 26.8536 82.5635 27.1041 83.1031 27.4317C83.6619 27.74 84.1147 28.164 84.4616 28.7035C84.8085 29.2238 84.9819 29.9079 84.9819 30.7558C84.9819 32.1047 84.5098 33.1742 83.5655 33.9643C82.6213 34.7544 81.3398 35.1494 79.7211 35.1494Z" fill="white"/>
<path d="M58.5671 34.8604V14.6267H61.8912V34.8604H58.5671ZM60.8507 34.8604V31.8253H72.1815V34.8604H60.8507ZM60.8507 25.9865V23.067H71.1987V25.9865H60.8507ZM60.8507 17.6618V14.6267H72.037V17.6618H60.8507Z" fill="white"/>
</svg>
