<svg width="114" height="34" viewBox="0 0 114 34" fill="none" xmlns="http://www.w3.org/2000/svg">
<path d="M17.333 34C7.94523 34 0.333008 26.3878 0.333008 17H17.333V34Z" fill="#703BF7"/>
<path d="M0.333008 0C9.72079 0 17.333 7.61222 17.333 17H0.333008V0Z" fill="#703BF7"/>
<path d="M17.333 34C26.7208 34 34.333 26.3878 34.333 17L16 16V33.5L17.333 34Z" fill="#703BF7"/>
<path d="M34.333 17C34.333 7.61222 26.7208 0 17.333 0V17H34.333Z" fill="#703BF7"/>
<path d="M111.414 24.6927V19.0212C111.414 18.3661 111.203 17.8269 110.78 17.4037C110.37 16.9806 109.838 16.769 109.183 16.769C108.746 16.769 108.357 16.8646 108.016 17.0557C107.674 17.2468 107.408 17.5129 107.217 17.8542C107.026 18.1954 106.93 18.5844 106.93 19.0212L106.05 18.5298C106.05 17.7791 106.214 17.1171 106.541 16.5438C106.869 15.9569 107.319 15.4996 107.893 15.172C108.48 14.8308 109.135 14.6602 109.858 14.6602C110.595 14.6602 111.251 14.8513 111.824 15.2334C112.397 15.602 112.848 16.0865 113.175 16.6871C113.503 17.2741 113.667 17.8883 113.667 18.5298V24.6927H111.414ZM104.678 24.6927V14.8649H106.93V24.6927H104.678Z" fill="white"/>
<path d="M99.9001 24.6928V14.865H102.152V24.6928H99.9001ZM101.026 13.0632C100.644 13.0632 100.323 12.9336 100.064 12.6742C99.8182 12.4149 99.6953 12.0941 99.6953 11.7119C99.6953 11.3297 99.8182 11.009 100.064 10.7496C100.323 10.4903 100.644 10.3606 101.026 10.3606C101.422 10.3606 101.743 10.4903 101.988 10.7496C102.234 11.009 102.357 11.3297 102.357 11.7119C102.357 12.0941 102.234 12.4149 101.988 12.6742C101.743 12.9336 101.422 13.0632 101.026 13.0632Z" fill="white"/>
<path d="M93.5082 24.8974C92.5254 24.8974 91.6381 24.679 90.8465 24.2422C90.0684 23.7918 89.4474 23.1776 88.9833 22.3995C88.5328 21.6215 88.3076 20.7479 88.3076 19.7788C88.3076 18.8097 88.5328 17.9429 88.9833 17.1785C89.4337 16.4005 90.0411 15.7863 90.8055 15.3358C91.5835 14.8854 92.4435 14.6602 93.3853 14.6602C94.2998 14.6602 95.1052 14.8717 95.8013 15.2949C96.5111 15.718 97.0639 16.2981 97.4597 17.0352C97.8692 17.7723 98.074 18.6117 98.074 19.5536C98.074 19.7174 98.0603 19.888 98.033 20.0654C98.0194 20.2292 97.9921 20.4135 97.9511 20.6183H89.8842V18.7755H96.7841L95.9446 19.5126C95.9173 18.912 95.8013 18.407 95.5966 17.9975C95.3918 17.588 95.0983 17.2741 94.7161 17.0557C94.3476 16.8373 93.8903 16.7281 93.3444 16.7281C92.7711 16.7281 92.2729 16.8509 91.8497 17.0966C91.4266 17.3423 91.099 17.6904 90.8669 18.1408C90.6349 18.5776 90.5189 19.1031 90.5189 19.7174C90.5189 20.3316 90.6417 20.8708 90.8874 21.3349C91.1331 21.7989 91.4812 22.1607 91.9316 22.42C92.3821 22.6657 92.9007 22.7886 93.4877 22.7886C93.9927 22.7886 94.4568 22.6998 94.8799 22.5224C95.3167 22.3449 95.6853 22.0856 95.9856 21.7443L97.4188 23.198C96.9411 23.7577 96.3609 24.1808 95.6785 24.4675C94.996 24.7541 94.2725 24.8974 93.5082 24.8974Z" fill="white"/>
<path d="M82.9791 24.6927V10.77H85.2313V24.6927H82.9791ZM80.6245 16.9124V14.8649H87.5859V16.9124H80.6245Z" fill="white"/>
<path d="M73.7228 24.8974C72.8356 24.8974 72.0302 24.6722 71.3068 24.2218C70.597 23.7713 70.0305 23.1639 69.6074 22.3995C69.1979 21.6215 68.9932 20.7547 68.9932 19.7993C68.9932 18.8301 69.1979 17.9634 69.6074 17.199C70.0305 16.421 70.597 15.8067 71.3068 15.3563C72.0302 14.8922 72.8356 14.6602 73.7228 14.6602C74.4735 14.6602 75.1355 14.824 75.7088 15.1515C76.2958 15.4655 76.7598 15.9023 77.1011 16.4619C77.4423 17.0216 77.613 17.6563 77.613 18.366V21.1915C77.613 21.9013 77.4423 22.536 77.1011 23.0957C76.7735 23.6553 76.3162 24.0989 75.7293 24.4265C75.1424 24.7405 74.4735 24.8974 73.7228 24.8974ZM74.0913 22.7681C74.924 22.7681 75.5928 22.4883 76.0978 21.9286C76.6165 21.369 76.8759 20.6524 76.8759 19.7788C76.8759 19.1919 76.7598 18.6732 76.5278 18.2227C76.2958 17.7723 75.9682 17.4242 75.545 17.1785C75.1355 16.9192 74.651 16.7895 74.0913 16.7895C73.5453 16.7895 73.0608 16.9192 72.6376 17.1785C72.2281 17.4242 71.9006 17.7723 71.6549 18.2227C71.4228 18.6732 71.3068 19.1919 71.3068 19.7788C71.3068 20.3657 71.4228 20.8844 71.6549 21.3349C71.9006 21.7853 72.2281 22.1402 72.6376 22.3995C73.0608 22.6452 73.5453 22.7681 74.0913 22.7681ZM76.7325 24.6927V22.0515L77.1216 19.6559L76.7325 17.2809V14.8649H78.9847V24.6927H76.7325Z" fill="white"/>
<path d="M63.6436 24.6927V10.77H65.8958V24.6927H63.6436ZM61.2891 16.9124V14.8649H68.2504V16.9124H61.2891Z" fill="white"/>
<path d="M56.5661 24.8974C56.0201 24.8974 55.4946 24.8292 54.9896 24.6927C54.4846 24.5425 54.0205 24.3378 53.5973 24.0785C53.1742 23.8055 52.8056 23.4779 52.4917 23.0957L53.9249 21.6625C54.2662 22.0583 54.6552 22.3586 55.092 22.5633C55.5424 22.7544 56.0474 22.85 56.6071 22.85C57.1121 22.85 57.4943 22.7749 57.7537 22.6248C58.013 22.4746 58.1427 22.2562 58.1427 21.9696C58.1427 21.6693 58.0198 21.4372 57.7741 21.2734C57.5284 21.1096 57.2077 20.9731 56.8118 20.8639C56.4296 20.7411 56.0201 20.6182 55.5834 20.4954C55.1602 20.3726 54.7507 20.2088 54.3549 20.004C53.9727 19.7856 53.6587 19.4921 53.4131 19.1236C53.1674 18.7551 53.0445 18.2773 53.0445 17.6904C53.0445 17.0625 53.1878 16.5233 53.4745 16.0729C53.7748 15.6225 54.1911 15.2744 54.7234 15.0287C55.2694 14.783 55.9178 14.6602 56.6685 14.6602C57.4602 14.6602 58.1563 14.8035 58.7569 15.0901C59.3711 15.3631 59.883 15.7794 60.2925 16.3391L58.8593 17.7723C58.5726 17.4174 58.245 17.1512 57.8765 16.9738C57.508 16.7963 57.0848 16.7076 56.6071 16.7076C56.1566 16.7076 55.8086 16.7759 55.5629 16.9124C55.3172 17.0489 55.1943 17.2468 55.1943 17.5061C55.1943 17.7791 55.3172 17.9907 55.5629 18.1408C55.8086 18.291 56.1225 18.4206 56.5047 18.5298C56.9006 18.639 57.31 18.7619 57.7332 18.8984C58.17 19.0212 58.5795 19.1987 58.9617 19.4307C59.3575 19.6491 59.6783 19.9494 59.924 20.3316C60.1697 20.7001 60.2925 21.1847 60.2925 21.7853C60.2925 22.7408 59.9581 23.4983 59.2892 24.058C58.6204 24.6176 57.7127 24.8974 56.5661 24.8974Z" fill="white"/>
<path d="M41.582 24.6928V10.3606H43.9366V24.6928H41.582ZM43.1995 24.6928V22.543H51.2255V24.6928H43.1995ZM43.1995 18.4071V16.3392H50.5294V18.4071H43.1995ZM43.1995 12.5104V10.3606H51.1232V12.5104H43.1995Z" fill="white"/>
</svg>
